<svg width="97" height="56" viewBox="0 0 97 56" fill="none" xmlns="http://www.w3.org/2000/svg">
    <path d="M27.2346 0.291581C27.0061 0.45767 26.7361 0.70192 26.6322 0.81916C26.5284 0.946169 26.3933 1.04387 26.3414 1.04387C26.2791 1.04387 26.1129 1.17088 25.9675 1.33697C25.8325 1.49329 25.6248 1.63007 25.5313 1.63007C25.4274 1.63007 24.8769 1.40536 24.3057 1.14157C23.2775 0.66284 22.9243 0.56514 22.9243 0.741C22.9243 0.838699 23.4436 2.13811 23.7033 2.68522C23.7864 2.86108 23.8591 3.06625 23.8591 3.15418C23.8591 3.29096 23.2151 3.9944 22.3739 4.78577C22.1246 5.01048 21.9896 5.21565 22.0311 5.30358C22.0934 5.4599 22.2388 5.45013 24.0876 5.28404C24.6796 5.23519 24.9393 5.24496 25.0535 5.34266C25.1366 5.41105 25.5209 5.9484 25.8948 6.52482C26.2687 7.11102 26.6114 7.58975 26.6634 7.58975C26.8088 7.58975 26.975 6.96447 27.0996 5.95817C27.1619 5.46967 27.245 5.02025 27.2762 4.96163C27.3489 4.86393 28.2629 4.60014 29.4157 4.34612C30.3505 4.15072 30.3297 4.05302 29.2392 3.53521C27.5151 2.71453 27.6501 2.83177 27.6812 2.1088C27.702 1.76685 27.7539 1.3272 27.8059 1.14157C27.8578 0.955939 27.9097 0.62376 27.9305 0.408821C27.972 -0.0992184 27.7851 -0.128528 27.2346 0.291581Z"
          fill="#FF0103"/>
    <path d="M24.2643 6.04613C24.0981 6.18291 23.5581 6.83749 23.3919 7.13059C23.2361 7.38461 21.4704 9.82711 21.1484 10.2277C21.003 10.4133 20.7226 10.8334 20.5357 11.1558C20.3487 11.4782 20.1618 11.7909 20.1098 11.8495C20.0683 11.8983 19.7151 12.4259 19.3412 13.0219C18.9673 13.6081 18.6142 14.1552 18.5623 14.2334C18.5103 14.3115 18.3753 14.5362 18.2715 14.7219C17.6275 15.8552 16.7343 17.3207 16.6408 17.3793C16.5889 17.4184 16.5681 17.4575 16.6097 17.4575C16.6512 17.4575 16.2773 18.2195 15.7788 19.1477C15.2802 20.0758 14.7609 21.0821 14.6155 21.3948C14.4805 21.6976 14.3247 21.9516 14.2728 21.9516C14.2312 21.9516 14.2104 21.9907 14.2416 22.0396C14.2728 22.0884 14.0443 22.7137 13.7223 23.4269C11.2296 29.0446 9.74436 34.125 9.04848 39.391C8.77844 41.4134 8.77844 45.9565 9.04848 47.3047C9.44316 49.288 10.461 51.6426 11.4269 52.8052C11.6658 53.0885 11.9151 53.3914 11.967 53.4793C12.2474 53.8995 13.6392 54.9546 14.3558 55.2868C15.6334 55.8925 16.2046 56 17.991 56C19.8294 56 20.3072 55.9218 21.7197 55.3943C22.6337 55.0523 24.2955 54.2707 24.5863 54.046C24.6694 53.9776 24.8875 53.8506 25.0537 53.7627C25.4691 53.5575 25.9988 53.1374 25.9261 53.069C25.843 53.0006 25.2926 53.1667 24.3786 53.538C24.1812 53.6259 23.4542 53.8311 22.7687 54.0069C19.8813 54.7299 17.4613 54.3977 15.7268 53.0299C14.3143 51.9064 13.2134 49.6593 12.4136 46.23C12.2059 45.3312 12.1851 44.9892 12.1851 41.7847C12.1747 36.802 12.3721 35.5808 14.2728 28.9372C14.709 27.4033 15.3425 25.5372 16.2461 23.1729C17.1913 20.6913 17.2744 20.4861 17.4821 20.0465C17.586 19.8316 17.6691 19.6362 17.6794 19.6068C17.7314 19.3626 18.1988 18.3172 18.2611 18.2781C18.313 18.2488 18.3545 18.1707 18.3545 18.0925C18.3545 18.0143 18.5103 17.6333 18.7077 17.2425C18.905 16.8517 19.1854 16.2655 19.3205 15.9431C19.4659 15.6207 19.7982 14.9368 20.0475 14.4288C20.3072 13.9207 20.7953 12.934 21.1484 12.2305C21.4912 11.5368 21.8339 10.9018 21.9066 10.8139C21.9897 10.7357 22.052 10.6282 22.0624 10.5892C22.104 10.3938 22.3636 9.93457 22.426 9.93457C22.4779 9.93457 22.509 9.86618 22.509 9.78802C22.509 9.66101 23.153 8.44954 23.9112 7.15014C24.4305 6.26107 24.5032 6.12429 24.4617 6.02658C24.4409 5.95819 24.3682 5.96797 24.2643 6.04613Z"
          fill="#FF0103"/>
    <path d="M14.2934 12.7581C10.357 14.0087 7.4489 15.6012 5.24701 17.7115C4.13568 18.7764 3.86564 19.0988 3.00358 20.3396C-0.538123 25.4298 -0.984731 32.1906 1.8611 37.525C2.75432 39.1957 3.99028 40.8566 5.37165 42.2146C6.17139 43.006 7.2931 43.9341 7.43851 43.9341C7.49044 43.9341 7.56314 43.3088 7.5943 42.537C7.68778 40.8273 7.8228 39.4204 8.02014 38.0624C8.17593 37.0463 8.17593 37.017 7.92666 36.0302C7.65662 34.9848 7.37619 33.1285 7.46967 33.0308C7.50083 33.0015 7.79164 33.1383 8.10323 33.3239C8.4252 33.5193 8.73679 33.6756 8.78872 33.6756C8.85104 33.6756 8.92374 33.5584 8.96529 33.4021C8.99645 33.2555 9.12108 32.7866 9.24572 32.3567L9.45344 31.5849L9.16263 31.3797C8.99645 31.2722 8.60177 30.9791 8.26941 30.7251L7.67739 30.2659L7.77087 29.8458C8.22786 27.8918 9.50537 25.1465 10.9283 23.0752L11.1256 22.7821L10.8971 22.9678C10.1493 23.5735 7.76048 27.4717 7.25156 28.9177C7.11654 29.2792 6.98151 29.5723 6.93997 29.5723C6.80495 29.5723 5.0289 27.628 4.198 26.5631C3.42942 25.5959 3.39826 25.5373 3.46058 25.1465C3.72024 23.5833 4.54075 21.4046 5.39242 20.0661C7.1477 17.3207 10.1909 14.9271 14.3869 13.0024C15.0205 12.7093 15.5502 12.4455 15.5502 12.4259C15.5502 12.3576 15.6333 12.338 14.2934 12.7581ZM5.82864 31.8193L6.23371 32.1222L6.25448 34.4865C6.26486 35.786 6.30641 37.0267 6.34795 37.2417L6.43104 37.6325L6.21293 37.3882C5.9325 37.0756 4.84195 35.0044 4.50959 34.1641C4.01105 32.9136 3.39826 30.5981 3.39826 29.9924C3.39826 29.7774 3.51251 29.8556 4.41611 30.6372C4.96658 31.1159 5.61053 31.6435 5.82864 31.8193Z"
          fill="#4C4C4C"/>
    <path d="M49.565 15.6012C46.9372 15.9236 45.3482 17.3891 45.4832 19.3724C45.5974 21.0235 46.6568 22.0298 49.7208 23.3878C51.4033 24.1304 51.9019 24.6384 51.9019 25.5763C51.9019 26.6706 51.1021 27.2372 49.4715 27.3056C48.1213 27.3642 47.5189 27.2079 45.5455 26.27C45.4936 26.2504 45.4624 26.7194 45.4624 27.3154V28.3998L45.8571 28.5562C46.9892 29.0153 49.3988 29.2205 50.8217 28.9763C53.4286 28.5464 54.8204 26.9441 54.3842 24.8729C54.1038 23.5344 52.9717 22.5183 50.4686 21.3557C48.4121 20.3982 47.9551 19.9879 47.9551 19.0891C47.9551 18.5908 48.2563 18.1121 48.7652 17.7799C49.5857 17.2621 51.6422 17.223 52.847 17.7017C53.9791 18.1414 53.8753 18.2098 53.8753 17.0374V16.0115L53.3767 15.8552C52.4108 15.5523 50.8321 15.4449 49.565 15.6012Z"
          fill="#4C4C4C"/>
    <path d="M60.4394 15.6109C58.518 15.8454 56.96 16.8127 56.5134 18.073C56.233 18.8448 56.2642 19.8218 56.5861 20.4862C57.0951 21.512 57.9779 22.1666 60.3148 23.2706C61.9039 24.0229 62.4024 24.3453 62.6413 24.824C62.9425 25.42 62.7971 26.27 62.3297 26.7096C62.257 26.7878 61.9662 26.9441 61.6962 27.0614C61.2703 27.247 61.0211 27.2763 60.0032 27.2665C58.9854 27.2665 58.6945 27.2274 58.0402 27.0125C57.6248 26.866 57.0951 26.6412 56.8769 26.5045C56.6588 26.3677 56.4303 26.2504 56.368 26.2504C56.3057 26.2504 56.2642 26.6315 56.2642 27.2274C56.2642 28.0579 56.2953 28.2338 56.4615 28.3901C56.8666 28.7711 58.5284 29.0837 60.0967 29.0837C61.4988 29.0837 62.444 28.8883 63.4307 28.4292C64.6874 27.8332 65.3002 26.8855 65.3002 25.5568C65.3002 23.7982 64.1265 22.6062 61.0418 21.1994C59.5981 20.5448 59.0269 20.1051 58.8607 19.5092C58.6322 18.708 59.0373 18.0339 59.9824 17.6236C60.3979 17.4379 60.6472 17.4086 61.7689 17.4086C62.9633 17.4086 63.1191 17.4379 63.7423 17.6822C64.8224 18.1218 64.7289 18.1805 64.7082 17.1155C64.6978 16.5879 64.6666 16.119 64.6459 16.0506C64.5732 15.8845 63.9396 15.7184 62.8594 15.6012C61.8104 15.4937 61.3846 15.4937 60.4394 15.6109Z"
          fill="#4C4C4C"/>
    <path d="M21.782 22.2936V28.8883H22.8725H23.9631V23.5344L23.9735 18.1902L24.2643 18.9913C24.4201 19.431 25.4379 21.8442 26.5181 24.3453L28.4811 28.8981L29.312 28.8688L30.1325 28.8395L31.2646 26.2016C33.6431 20.6131 33.965 19.8218 34.287 18.9718L34.609 18.0925L34.5778 23.4855L34.5467 28.8883H35.6892H36.842V22.2936V15.6891L35.2633 15.7184L33.6846 15.7477L31.732 20.2907C30.6622 22.7918 29.7067 25.0682 29.6028 25.3418C29.5093 25.6251 29.4055 25.8596 29.3743 25.8596C29.3328 25.8596 29.2185 25.6251 29.1147 25.3418C29.0108 25.0682 28.1487 22.9872 27.2036 20.7304C26.2585 18.4735 25.4068 16.4316 25.3029 16.1873L25.1264 15.7477L23.4542 15.7184L21.782 15.6988V22.2936Z"
          fill="#4C4C4C"/>
    <path d="M40.2695 22.2936V28.8883H41.4639H42.6584V22.2936V15.6989H41.4639H40.2695V22.2936Z" fill="#4C4C4C"/>
    <path d="M67.8759 15.7575C67.8344 15.7868 67.8032 18.7569 67.7929 22.3522L67.7825 28.8883H69.0392H70.2856L70.2648 22.3131L70.2336 15.7477L69.0808 15.7184C68.4576 15.7086 67.9071 15.7184 67.8759 15.7575Z"
          fill="#4C4C4C"/>
    <path d="M72.0826 15.7673C72.1033 15.8161 73.1108 17.731 74.326 20.0367L76.5175 24.2281V26.5533V28.8883H77.7119H78.9063V26.4556V24.0327L79.1971 23.5051C79.3633 23.212 80.1215 21.8344 80.8797 20.4373C81.6379 19.0402 82.5104 17.4575 82.8116 16.9103C83.1231 16.3632 83.3724 15.8747 83.3724 15.8063C83.3724 15.7282 83.0401 15.6989 82.1572 15.7184L80.942 15.7477L79.7372 18.0925C79.0829 19.3822 78.3559 20.8086 78.1377 21.258C77.9093 21.7172 77.7015 22.02 77.6808 21.9419C77.66 21.8637 76.9849 20.4275 76.1747 18.7471L74.6999 15.6989H73.3705C72.6434 15.6989 72.0618 15.7282 72.0826 15.7673Z"
          fill="#4C4C4C"/>
    <path d="M88.5238 16.5977C87.776 18.4345 83.7565 28.5562 83.715 28.7125C83.663 28.8688 83.7669 28.8883 84.9509 28.8883H86.2284L86.8101 27.247L87.3813 25.6154L90.1337 25.5861L92.8756 25.5665L93.4988 27.2274L94.122 28.8883H95.3995C96.0954 28.8883 96.6666 28.8493 96.6666 28.8004C96.6666 28.7516 96.5108 28.3217 96.3135 27.8527C96.1265 27.374 95.4826 25.7522 94.8906 24.2476C94.2985 22.743 93.3015 20.2126 92.6679 18.6299L91.5254 15.7477L90.2064 15.7184L88.8977 15.6891L88.5238 16.5977ZM91.4631 21.639C91.8682 22.7333 92.2005 23.6614 92.2005 23.72C92.2005 23.7689 91.3488 23.8079 90.1129 23.8079C88.4822 23.8079 88.0356 23.7786 88.0668 23.6809C88.098 23.6223 88.5757 22.2936 89.1366 20.7402L90.1544 17.9264L90.4452 18.7862C90.601 19.2649 91.058 20.5448 91.4631 21.639Z"
          fill="#4C4C4C"/>
    <path d="M29.2806 31.282C29.2183 31.4969 29.1248 31.8486 29.0625 32.0636C28.6782 33.4314 27.9512 35.2681 27.3384 36.4112C27.0061 37.0365 26.9541 37.0854 26.6945 37.0463C26.5283 37.017 25.8428 36.929 25.1573 36.8411C21.5844 36.4015 18.2401 35.6394 15.5189 34.6331C14.7814 34.3693 14.1687 34.1641 14.1375 34.1837C14.0648 34.2618 13.774 35.7566 13.8259 35.7957C13.9194 35.8836 15.9655 36.4112 17.1184 36.6457C18.9048 37.0072 21.0028 37.271 23.0281 37.398C24.0252 37.4468 25.2612 37.525 25.7701 37.5641L26.6945 37.6325L26.0505 38.5313C24.5445 40.6416 21.9791 42.6835 19.0606 44.0807L18.0739 44.5594L16.6821 44.2467C15.9135 44.0709 14.8957 43.7778 14.4075 43.5922C13.9194 43.4065 13.4832 43.2502 13.4312 43.2502C13.2962 43.2502 13.4416 45.126 13.6493 46.0835L13.8363 46.9139L14.3556 47.0312C16.2771 47.4806 19.2787 47.5978 21.4183 47.3047C24.3991 46.8944 27.2969 45.8588 29.7169 44.3444C33.1339 42.195 35.1593 39.7232 36.416 36.1377C36.9145 34.721 36.9768 34.4572 36.8418 34.4572C36.7899 34.4572 36.738 34.5158 36.738 34.5745C36.738 34.8089 35.5955 36.9193 35.0138 37.7595C34.6399 38.3164 33.9856 39.0198 33.1651 39.7916C31.1606 41.6577 28.9691 42.9278 26.1959 43.8364C24.9911 44.2272 22.7581 44.6864 22.6334 44.5789C22.6023 44.5398 22.9243 44.1784 23.3501 43.7582C24.9496 42.2244 26.2894 40.4462 27.2138 38.6388C27.5773 37.9256 27.8162 37.5738 27.9616 37.5445C28.0758 37.5152 28.7302 37.4859 29.4157 37.4859C31.1709 37.4859 31.2333 37.3394 29.5091 37.2514C28.7302 37.2124 28.0551 37.1635 28.0135 37.144C27.9824 37.1244 28.0862 36.7141 28.242 36.2451C28.6367 35.1216 29.0937 33.3532 29.3118 32.1222C29.4988 31.1061 29.478 30.5981 29.2806 31.282Z"
          fill="#4C4C4C"/>
</svg>
